<svg width="18" height="19" viewBox="0 0 18 19" fill="none" xmlns="http://www.w3.org/2000/svg">
<path d="M4.09499 10.0033C3.59046 9.90215 3.11125 9.70041 2.68568 9.41002C2.26012 9.11962 1.89685 8.74645 1.61736 8.31259C1.33787 7.87873 1.14783 7.39298 1.05848 6.88407C0.969127 6.37515 0.982282 5.85341 1.09716 5.34969C1.21204 4.84597 1.42632 4.37051 1.72732 3.95141C2.02831 3.53231 2.40992 3.1781 2.84957 2.90971C3.28922 2.64132 3.77799 2.46421 4.28697 2.38884C4.79595 2.31348 5.31481 2.3414 5.81286 2.47095C6.17273 2.01206 6.63163 1.64123 7.15495 1.38643C7.67828 1.13162 8.25237 0.999492 8.83394 1C9.43226 0.999478 10.0224 1.13931 10.5574 1.40835C11.0925 1.67739 11.5575 2.06822 11.9156 2.54969C12.4146 2.37966 12.943 2.31438 13.4681 2.35788C13.9932 2.40137 14.5039 2.55273 14.9684 2.80256C15.4329 3.05239 15.8413 3.39537 16.1685 3.81026C16.4956 4.22514 16.7344 4.70309 16.8702 5.21448C17.0059 5.72586 17.0356 6.2598 16.9575 6.78319C16.8793 7.30659 16.695 7.80829 16.416 8.25721C16.1369 8.70613 15.769 9.09271 15.3351 9.39298C14.9012 9.69326 14.4106 9.90083 13.8936 10.0028V17.1053C13.8936 17.3426 13.7997 17.5701 13.6327 17.7379C13.4656 17.9057 13.239 18 13.0028 18H4.98577C4.74952 18 4.52295 17.9057 4.3559 17.7379C4.18884 17.5701 4.09499 17.3426 4.09499 17.1053V10.0033Z" fill="#FFFCFA"/>
<path d="M4.09499 13.0789H13.8936H4.09499Z" fill="#FFFCFA"/>
<path d="M7.21272 10.3947V13.0789V10.3947Z" fill="#FFFCFA"/>
<path d="M13.8936 11.7368V14.4211V11.7368Z" fill="#FFFCFA"/>
<path d="M4.09499 11.7368V14.4211V11.7368Z" fill="#FFFCFA"/>
<path d="M4.09499 13.0789H13.8936M7.21272 10.3947V13.0789M13.8936 11.7368V14.4211M4.09499 11.7368V14.4211M4.09499 10.0033C3.59046 9.90215 3.11125 9.70041 2.68568 9.41002C2.26012 9.11962 1.89685 8.74645 1.61736 8.31259C1.33787 7.87873 1.14783 7.39298 1.05848 6.88407C0.969127 6.37515 0.982282 5.85341 1.09716 5.34969C1.21204 4.84597 1.42632 4.37051 1.72732 3.95141C2.02831 3.53231 2.40992 3.1781 2.84957 2.90971C3.28922 2.64132 3.77799 2.46421 4.28697 2.38884C4.79595 2.31348 5.31481 2.3414 5.81286 2.47095C6.17273 2.01206 6.63163 1.64123 7.15495 1.38643C7.67828 1.13162 8.25237 0.999492 8.83394 1C9.43226 0.999478 10.0224 1.13931 10.5574 1.40835C11.0925 1.67739 11.5575 2.06822 11.9156 2.54969C12.4146 2.37966 12.943 2.31438 13.4681 2.35788C13.9932 2.40137 14.5039 2.55273 14.9684 2.80256C15.4329 3.05239 15.8413 3.39537 16.1685 3.81026C16.4956 4.22514 16.7344 4.70309 16.8702 5.21448C17.0059 5.72586 17.0356 6.2598 16.9575 6.78319C16.8793 7.30659 16.695 7.80829 16.416 8.25721C16.1369 8.70613 15.769 9.09271 15.3351 9.39298C14.9012 9.69326 14.4106 9.90083 13.8936 10.0028V17.1053C13.8936 17.3426 13.7997 17.5701 13.6327 17.7379C13.4656 17.9057 13.239 18 13.0028 18H4.98577C4.74952 18 4.52295 17.9057 4.3559 17.7379C4.18884 17.5701 4.09499 17.3426 4.09499 17.1053V10.0033Z" stroke="#0F1F0D" stroke-linecap="round" stroke-linejoin="round"/>
</svg>
