<svg width="8" height="17" viewBox="0 0 8 17" fill="none" xmlns="http://www.w3.org/2000/svg">
<path d="M1.64776 6.69579L1.70752 6.72143L1.75519 6.67721L2.85417 5.65787L4.23386 6.24377L4.29371 6.26919L4.34122 6.2248L5.1101 5.50641C5.54444 5.71986 5.8861 6.16065 5.98314 6.71557L7.71646 16.6278C7.68037 16.622 7.63735 16.6146 7.58792 16.6053C7.4187 16.5736 7.17458 16.5199 6.87713 16.4321C6.28207 16.2563 5.47458 15.9442 4.6264 15.3993C2.93266 14.311 1.06996 12.2902 0.416248 8.55194L0.269832 7.71464C0.172794 7.15972 0.344589 6.62914 0.680726 6.28097L1.64776 6.69579ZM2.65312 4.19253L2.59351 4.16721L2.54603 4.21126L1.44708 5.23056L0.339636 4.75929C0.594961 3.96864 1.03833 3.34008 1.61745 2.9917L1.69743 2.94359L1.65494 2.86049C1.49418 2.54609 1.19234 2.32653 0.852823 2.34046L0.593808 0.859259C1.07724 0.802132 1.57375 0.933398 2.00021 1.23648C2.45629 1.5606 2.80002 2.05861 2.96355 2.63745L2.98083 2.69861L3.04353 2.70893C3.72417 2.82104 4.38535 3.27212 4.91469 3.95916L4.03276 4.7784L2.65312 4.19253Z" fill="#EC4C4C" stroke="white" stroke-width="0.2"/>
</svg>
