<svg width="25" height="25" viewBox="0 0 25 25" fill="none" xmlns="http://www.w3.org/2000/svg">
<path fill-rule="evenodd" clip-rule="evenodd" d="M19.8334 23.1666C20.7174 23.1666 21.5653 22.8154 22.1904 22.1903C22.8155 21.5652 23.1667 20.7173 23.1667 19.8333C23.1667 18.9492 22.8155 18.1014 22.1904 17.4763C21.5653 16.8511 20.7174 16.5 19.8334 16.5C18.9493 16.5 18.1015 16.8511 17.4763 17.4763C16.8512 18.1014 16.5 18.9492 16.5 19.8333C16.5 20.7173 16.8512 21.5652 17.4763 22.1903C18.1015 22.8154 18.9493 23.1666 19.8334 23.1666ZM19.8334 24.5C21.071 24.5 22.258 24.0083 23.1332 23.1331C24.0084 22.258 24.5 21.071 24.5 19.8333C24.5 18.5956 24.0084 17.4086 23.1332 16.5335C22.258 15.6583 21.071 15.1666 19.8334 15.1666C18.5957 15.1666 17.4087 15.6583 16.5335 16.5335C15.6584 17.4086 15.1667 18.5956 15.1667 19.8333C15.1667 21.071 15.6584 22.258 16.5335 23.1331C17.4087 24.0083 18.5957 24.5 19.8334 24.5Z" fill="#FFFCFA"/>
<path fill-rule="evenodd" clip-rule="evenodd" d="M19.8334 17.5C20.0102 17.5 20.1797 17.5702 20.3048 17.6953C20.4298 17.8203 20.5 17.9899 20.5 18.1667V19.5573L20.9714 20.0287C21.0928 20.1544 21.16 20.3228 21.1585 20.4976C21.157 20.6724 21.0868 20.8396 20.9632 20.9632C20.8396 21.0868 20.6724 21.1569 20.4976 21.1585C20.3228 21.16 20.1544 21.0928 20.0287 20.9713L19.1667 20.1093V18.1667C19.1667 17.9899 19.2369 17.8203 19.3619 17.6953C19.487 17.5702 19.6565 17.5 19.8334 17.5Z" fill="#FFFCFA"/>
<path fill-rule="evenodd" clip-rule="evenodd" d="M5.83335 11.8333H4.50002V13.1667H5.83335V11.8333ZM4.50002 10.5C4.1464 10.5 3.80726 10.6405 3.55721 10.8905C3.30716 11.1406 3.16669 11.4797 3.16669 11.8333V13.1667C3.16669 13.5203 3.30716 13.8594 3.55721 14.1095C3.80726 14.3595 4.1464 14.5 4.50002 14.5H5.83335C6.18698 14.5 6.52611 14.3595 6.77616 14.1095C7.02621 13.8594 7.16669 13.5203 7.16669 13.1667V11.8333C7.16669 11.4797 7.02621 11.1406 6.77616 10.8905C6.52611 10.6405 6.18698 10.5 5.83335 10.5H4.50002Z" fill="#FFFCFA"/>
<path fill-rule="evenodd" clip-rule="evenodd" d="M11.1667 11.8333H9.83333V13.1667H11.1667V11.8333ZM9.83333 10.5C9.47971 10.5 9.14057 10.6405 8.89052 10.8905C8.64048 11.1406 8.5 11.4797 8.5 11.8333V13.1667C8.5 13.5203 8.64048 13.8594 8.89052 14.1095C9.14057 14.3595 9.47971 14.5 9.83333 14.5H11.1667C11.5203 14.5 11.8594 14.3595 12.1095 14.1095C12.3595 13.8594 12.5 13.5203 12.5 13.1667V11.8333C12.5 11.4797 12.3595 11.1406 12.1095 10.8905C11.8594 10.6405 11.5203 10.5 11.1667 10.5H9.83333Z" fill="#FFFCFA"/>
<path fill-rule="evenodd" clip-rule="evenodd" d="M16.5 11.8333H15.1666V13.1667H16.5V11.8333ZM15.1666 10.5C14.813 10.5 14.4739 10.6405 14.2238 10.8905C13.9738 11.1406 13.8333 11.4797 13.8333 11.8333V13.1667C13.8333 13.5203 13.9738 13.8594 14.2238 14.1095C14.4739 14.3595 14.813 14.5 15.1666 14.5H16.5C16.8536 14.5 17.1927 14.3595 17.4428 14.1095C17.6928 13.8594 17.8333 13.5203 17.8333 13.1667V11.8333C17.8333 11.4797 17.6928 11.1406 17.4428 10.8905C17.1927 10.6405 16.8536 10.5 16.5 10.5H15.1666Z" fill="#FFFCFA"/>
<path fill-rule="evenodd" clip-rule="evenodd" d="M5.83335 17.1667H4.50002V18.5H5.83335V17.1667ZM4.50002 15.8334C4.1464 15.8334 3.80726 15.9738 3.55721 16.2239C3.30716 16.4739 3.16669 16.8131 3.16669 17.1667V18.5C3.16669 18.8537 3.30716 19.1928 3.55721 19.4428C3.80726 19.6929 4.1464 19.8334 4.50002 19.8334H5.83335C6.18698 19.8334 6.52611 19.6929 6.77616 19.4428C7.02621 19.1928 7.16669 18.8537 7.16669 18.5V17.1667C7.16669 16.8131 7.02621 16.4739 6.77616 16.2239C6.52611 15.9738 6.18698 15.8334 5.83335 15.8334H4.50002Z" fill="#FFFCFA"/>
<path fill-rule="evenodd" clip-rule="evenodd" d="M11.1667 17.1667H9.83333V18.5H11.1667V17.1667ZM9.83333 15.8334C9.47971 15.8334 9.14057 15.9738 8.89052 16.2239C8.64048 16.4739 8.5 16.8131 8.5 17.1667V18.5C8.5 18.8537 8.64048 19.1928 8.89052 19.4428C9.14057 19.6929 9.47971 19.8334 9.83333 19.8334H11.1667C11.5203 19.8334 11.8594 19.6929 12.1095 19.4428C12.3595 19.1928 12.5 18.8537 12.5 18.5V17.1667C12.5 16.8131 12.3595 16.4739 12.1095 16.2239C11.8594 15.9738 11.5203 15.8334 11.1667 15.8334H9.83333Z" fill="#FFFCFA"/>
<path fill-rule="evenodd" clip-rule="evenodd" d="M1.83333 4.5C1.83333 4.32319 1.90357 4.15362 2.0286 4.0286C2.15362 3.90357 2.32319 3.83333 2.5 3.83333H5.83333V2.5H2.5C1.96957 2.5 1.46086 2.71071 1.08579 3.08579C0.710714 3.46086 0.5 3.96957 0.5 4.5V20.5C0.5 21.0304 0.710714 21.5391 1.08579 21.9142C1.46086 22.2893 1.96957 22.5 2.5 22.5H16.0033C15.719 22.0928 15.5018 21.6426 15.36 21.1667H2.5C2.32319 21.1667 2.15362 21.0964 2.0286 20.9714C1.90357 20.8464 1.83333 20.6768 1.83333 20.5V4.5ZM19.1667 15.2133C19.6089 15.1501 20.0578 15.1501 20.5 15.2133V4.5C20.5 3.96957 20.2893 3.46086 19.9142 3.08579C19.5391 2.71071 19.0304 2.5 18.5 2.5H16.5V3.83333H18.5C18.6768 3.83333 18.8464 3.90357 18.9714 4.0286C19.0964 4.15362 19.1667 4.32319 19.1667 4.5V15.2133ZM7.16667 3.83333H14.2087V2.5H7.16667V3.83333Z" fill="#FFFCFA"/>
<path fill-rule="evenodd" clip-rule="evenodd" d="M15.1667 2.5H7.16669V4.5C7.16669 4.67681 7.09645 4.84638 6.97142 4.9714C6.8464 5.09643 6.67683 5.16667 6.50002 5.16667C6.32321 5.16667 6.15364 5.09643 6.02861 4.9714C5.90359 4.84638 5.83335 4.67681 5.83335 4.5V2.5H2.50002C2.1464 2.5 1.80726 2.64048 1.55721 2.89052C1.30716 3.14057 1.16669 3.47971 1.16669 3.83333V7.16667C1.16669 7.52029 1.30716 7.85943 1.55721 8.10947C1.80726 8.35952 2.1464 8.5 2.50002 8.5H18.5C18.8536 8.5 19.1928 8.35952 19.4428 8.10947C19.6929 7.85943 19.8334 7.52029 19.8334 7.16667V3.83333C19.8334 3.47971 19.6929 3.14057 19.4428 2.89052C19.1928 2.64048 18.8536 2.5 18.5 2.5H16.5V4.5C16.5 4.67681 16.4298 4.84638 16.3048 4.9714C16.1797 5.09643 16.0102 5.16667 15.8334 5.16667C15.6565 5.16667 15.487 5.09643 15.3619 4.9714C15.2369 4.84638 15.1667 4.67681 15.1667 4.5V2.5Z" fill="#FFFCFA"/>
<path fill-rule="evenodd" clip-rule="evenodd" d="M20.5 8.49996H1.83331V7.16663H20.5V8.49996Z" fill="#FFFCFA"/>
<path d="M4.5 1.16667C4.5 0.989856 4.57024 0.820286 4.69526 0.695262C4.82029 0.570238 4.98986 0.5 5.16667 0.5C5.34348 0.5 5.51305 0.570238 5.63807 0.695262C5.7631 0.820286 5.83333 0.989856 5.83333 1.16667V3.83333C5.83333 4.01014 5.7631 4.17971 5.63807 4.30474C5.51305 4.42976 5.34348 4.5 5.16667 4.5C4.98986 4.5 4.82029 4.42976 4.69526 4.30474C4.57024 4.17971 4.5 4.01014 4.5 3.83333V1.16667Z" fill="#FFFCFA"/>
<path d="M13.8333 1.16667C13.8333 0.989856 13.9036 0.820286 14.0286 0.695262C14.1536 0.570238 14.3232 0.5 14.5 0.5C14.6768 0.5 14.8464 0.570238 14.9714 0.695262C15.0964 0.820286 15.1666 0.989856 15.1666 1.16667V3.83333C15.1666 4.01014 15.0964 4.17971 14.9714 4.30474C14.8464 4.42976 14.6768 4.5 14.5 4.5C14.3232 4.5 14.1536 4.42976 14.0286 4.30474C13.9036 4.17971 13.8333 4.01014 13.8333 3.83333V1.16667Z" fill="#FFFCFA"/>
</svg>
